<svg xmlns="http://www.w3.org/2000/svg" width="161" height="180" viewBox="0 0 161 180"><defs><style>.a{fill:#f05a24;}.b{fill:#66142e;}.c,.i,.j,.k{fill:#fff;}.d{opacity:0.55;}.e{fill:none;stroke:#66142e;stroke-width:0;}.e,.i{stroke-miterlimit:10;}.f{opacity:0.3;}.g{fill:#d3623b;}.h{fill:#f7a186;}.i{stroke:#fff;stroke-width:2px;font-size:9px;font-family:Futura-MediumItalic, Futura;font-weight:500;font-style:italic;}.j{font-size:7px;font-family:Futura-Bold, Futura;}.j,.k{font-weight:700;}.k{font-size:11px;font-family:Montserrat-Bold, Montserrat;}</style></defs><g transform="translate(4601 -312)"><g transform="translate(-4601 312)"><g transform="translate(0 0)"><path class="a" d="M136.982,318.34a9.909,9.909,0,0,1-1.993.072,1.418,1.418,0,0,1-.312-.025L27.049,308.247a10.38,10.38,0,0,1-6.423-3.042l-.078-.075a10.262,10.262,0,0,1-2.811-5.782L5.355,209.79a9.271,9.271,0,0,1,.853-5.35l.381.143a5.243,5.243,0,0,0,.562,4.516,7.026,7.026,0,0,0,5.31,2.6l113.422,10.059a9.762,9.762,0,0,1,8.8,8.4l10.661,77.166a9.783,9.783,0,0,1-8.365,11.017Z" transform="translate(-3.625 -140.071)"/><path class="b" d="M5.941,204.32c-1.175,4.249,1.656,6.97,6.048,7.375h.034l113.392,10.056a9.59,9.59,0,0,1,8.618,8.224l10.658,77.169a9.587,9.587,0,0,1-8.19,10.793,9.889,9.889,0,0,1-1.949.065,1.3,1.3,0,0,1-.29-.022L26.621,307.838a10.172,10.172,0,0,1-6.369-3.054h0a10.107,10.107,0,0,1-2.765-5.67L5.107,209.555a9.033,9.033,0,0,1,.834-5.235m-.369-.177a9.488,9.488,0,0,0-.872,5.468l12.376,89.558a10.483,10.483,0,0,0,2.877,5.91l.144.146h0a10.609,10.609,0,0,0,6.5,3.017l107.641,10.14c.1,0,.2.022.312.025a10.222,10.222,0,0,0,2.021-.072,9.992,9.992,0,0,0,8.54-11.247l-10.68-77.176a9.977,9.977,0,0,0-8.987-8.572L12.079,211.294h-.053a6.824,6.824,0,0,1-5.157-2.513,5.066,5.066,0,0,1-.534-4.355l-.762-.286Z" transform="translate(-3.173 -139.864)"/><path class="c" d="M9.492,242.521a.824.824,0,0,1-.414-.05,9.33,9.33,0,0,1-2.488-1.462.812.812,0,1,1,1.033-1.244,7.754,7.754,0,0,0,2.056,1.21.812.812,0,0,1-.193,1.555Z" transform="translate(-4.294 -164.688)"/><path class="c" d="M151.153,341.895a.746.746,0,0,1-.187,0l-5.238-.491a.812.812,0,1,1,.152-1.617l5.238.495a.812.812,0,0,1,.034,1.614Zm4.289-2.047a.79.79,0,0,1-.348-.028.812.812,0,0,1-.538-1.014,2.281,2.281,0,0,0,.072-.977l-.544-3.891a.813.813,0,0,1,1.611-.221l.532,3.885a3.879,3.879,0,0,1-.124,1.673.815.815,0,0,1-.659.572Zm-14.765,1.058a.935.935,0,0,1-.187,0l-5.238-.495a.815.815,0,1,1,.152-1.621l5.238.495a.815.815,0,0,1,.034,1.617Zm-10.476-.992a.746.746,0,0,1-.187,0l-5.238-.495a.815.815,0,1,1,.152-1.621l5.238.5a.812.812,0,0,1,.034,1.614Zm-10.476-1a.746.746,0,0,1-.187,0l-5.238-.5a.812.812,0,0,1,.152-1.617l5.238.495a.812.812,0,0,1,.034,1.614Zm-10.476-.989a.933.933,0,0,1-.187,0l-5.238-.495a.815.815,0,1,1,.152-1.621l5.238.495a.815.815,0,0,1,.034,1.617Zm45.042-8.5a.818.818,0,0,1-.918-.7l-.715-5.21a.812.812,0,1,1,1.608-.221l.719,5.21A.815.815,0,0,1,154.292,329.428ZM98.774,336.94a.746.746,0,0,1-.187,0l-5.238-.495a.815.815,0,1,1,.152-1.621l5.238.5a.812.812,0,0,1,.034,1.614ZM88.3,335.948a.749.749,0,0,1-.187,0l-5.238-.5a.812.812,0,1,1,.152-1.617l5.238.495a.812.812,0,0,1,.034,1.614Zm-10.476-.989a.932.932,0,0,1-.187,0l-5.238-.5a.812.812,0,0,1,.152-1.617l5.238.495a.815.815,0,0,1,.034,1.617Zm-10.473-.992a.774.774,0,0,1-.19,0l-5.238-.495a.815.815,0,0,1,.152-1.621l5.229.5a.812.812,0,0,1,.037,1.614Zm-10.476-.992a.961.961,0,0,1-.19,0l-5.244-.491a.812.812,0,1,1,.152-1.617l5.238.495a.812.812,0,0,1,.037,1.614Zm95.984-13.966a.815.815,0,0,1-.918-.694l-.719-5.216a.813.813,0,0,1,1.611-.221l.719,5.2a.809.809,0,0,1-.694.933ZM46.4,331.982a.769.769,0,0,1-.19,0l-1.365-.131a25.1,25.1,0,0,1-3.95-.473.815.815,0,0,1,.336-1.592,23.278,23.278,0,0,0,3.732.445l1.4.131a.812.812,0,0,1,.037,1.614Zm105.023-23.4a.812.812,0,0,1-.914-.694l-.719-5.213a.813.813,0,0,1,1.611-.221l.718,5.21a.818.818,0,0,1-.7.918Zm-1.434-10.411a.809.809,0,0,1-.914-.694l-.719-5.216a.813.813,0,1,1,1.611-.221l.719,5.2a.812.812,0,0,1-.7.933Zm-1.434-10.423a.809.809,0,0,1-.914-.694l-.709-5.229a.813.813,0,1,1,1.611-.221l.715,5.21a.815.815,0,0,1-.7.918Zm-1.434-10.423a.818.818,0,0,1-.918-.7l-.715-5.21a.813.813,0,1,1,1.611-.224l.715,5.213a.815.815,0,0,1-.694.9Zm-1.434-10.442a.815.815,0,0,1-.918-.694l-.715-5.213a.812.812,0,1,1,1.608-.221l.719,5.213a.809.809,0,0,1-.694.914Zm-4.339-8.233a.721.721,0,0,1-.183,0l-5.238-.467a.815.815,0,1,1,.143-1.621l5.241.467a.812.812,0,0,1,.037,1.614Zm-10.479-.933a.724.724,0,0,1-.184,0l-5.241-.467a.815.815,0,0,1,.143-1.621l5.241.467a.812.812,0,0,1,.04,1.614Zm-10.482-.933a.9.9,0,0,1-.184,0l-5.241-.47a.812.812,0,0,1,.143-1.617l5.241.467a.812.812,0,0,1,.04,1.614Zm-10.482-.933a.721.721,0,0,1-.184,0l-5.238-.467a.812.812,0,1,1,.143-1.617l5.241.467a.812.812,0,0,1,.037,1.614Zm-10.479-.933a.9.9,0,0,1-.184,0L94,254.449a.815.815,0,0,1,.143-1.621l5.241.467a.815.815,0,0,1,.04,1.617Zm-10.482-.933a.721.721,0,0,1-.184,0l-5.241-.467a.815.815,0,0,1,.146-1.621l5.238.467a.812.812,0,0,1,.04,1.614Zm-10.482-.933a.721.721,0,0,1-.184,0l-5.238-.467a.815.815,0,1,1,.143-1.621l5.241.467a.812.812,0,0,1,.037,1.614Zm-10.479-.933a.9.9,0,0,1-.184,0l-5.241-.47a.812.812,0,0,1,.143-1.617l5.241.467a.812.812,0,0,1,.04,1.614ZM57.5,251.183a.721.721,0,0,1-.184,0l-5.253-.467a.812.812,0,1,1,.146-1.617l5.238.467a.812.812,0,0,1,.04,1.614Zm-10.482-.933a.719.719,0,0,1-.184,0l-5.238-.467a.815.815,0,1,1,.143-1.621l5.241.47a.812.812,0,0,1,.037,1.614Zm-10.479-.933a.9.9,0,0,1-.184,0l-5.241-.467a.815.815,0,0,1,.143-1.621l5.254.467a.815.815,0,0,1,.04,1.617Z" transform="translate(-20.954 -169.551)"/><path class="c" d="M44.47,502.385a.815.815,0,0,1-.666-.212,6.681,6.681,0,0,1-1.68-2.46.812.812,0,1,1,1.512-.594,5.1,5.1,0,0,0,1.275,1.866.815.815,0,0,1-.442,1.4Z" transform="translate(-28.98 -342.737)"/><g class="d" transform="translate(1.844 63.975)"><path class="c" d="M6.985,208.614a9.1,9.1,0,0,0-.538,4.563l-.442-3.222a9.067,9.067,0,0,1,.83-5.235A5.735,5.735,0,0,0,6.985,208.614Z" transform="translate(-5.918 -204.72)"/><path class="e" d="M6.985,208.614a9.1,9.1,0,0,0-.538,4.563l-.442-3.222a9.067,9.067,0,0,1,.83-5.235A5.735,5.735,0,0,0,6.985,208.614Z" transform="translate(-5.918 -204.72)"/></g><g class="d" transform="translate(2.912 67.199)"><path class="c" d="M9.642,215.08a7.191,7.191,0,0,0-.187.9,1.844,1.844,0,0,1-.106-.224C9.437,215.528,9.534,215.3,9.642,215.08Z" transform="translate(-9.35 -215.08)"/><path class="e" d="M9.642,215.08a7.191,7.191,0,0,0-.187.9,1.844,1.844,0,0,1-.106-.224C9.437,215.528,9.534,215.3,9.642,215.08Z" transform="translate(-9.35 -215.08)"/></g><path class="b" d="M132.855,318.829a10.954,10.954,0,0,1-2.187.078,3.444,3.444,0,0,1-.356-.031L22.7,308.739a11.352,11.352,0,0,1-10.236-9.776L.089,209.411a10.291,10.291,0,0,1,.937-5.935,1.224,1.224,0,0,1,2.283.855A4.213,4.213,0,0,0,3.728,208a6.078,6.078,0,0,0,4.554,2.177H8.32l113.387,10.059a10.778,10.778,0,0,1,9.724,9.272l10.661,77.166a10.8,10.8,0,0,1-9.24,12.162ZM2.713,210.5l12.179,88.149a8.914,8.914,0,0,0,8.04,7.673l107.627,10.128.219.019A8.37,8.37,0,0,0,139.661,307L129,229.834a8.337,8.337,0,0,0-7.5-7.176L8.114,212.6H8.07A9.265,9.265,0,0,1,2.713,210.5Z" transform="translate(0.011 -138.93)"/><path class="a" d="M159.1,187.6a9.39,9.39,0,0,0-8.433-8.05L32.06,170.017l122.419-16.771a9.81,9.81,0,0,1,11.063,8.351l10.735,77.686a9.6,9.6,0,0,1-.094,3.219,9.748,9.748,0,0,1-4.894,6.672,9.96,9.96,0,0,1-3.308,1.107l-.206.028Z" transform="translate(-22.085 -105.058)"/><path class="a" d="M150.32,153a9.616,9.616,0,0,1,10.834,8.18l10.731,77.686a9.4,9.4,0,0,1-.091,3.151,9.574,9.574,0,0,1-8.033,7.617l-8.636-62.5a9.6,9.6,0,0,0-8.614-8.224L29.776,169.515,150.332,153m-.056-.4L29.72,169.113,26,169.62l3.729.311,116.737,9.384a9.188,9.188,0,0,1,8.258,7.866l8.636,62.519.056.407.406-.062a9.977,9.977,0,0,0,8.373-7.938,9.846,9.846,0,0,0,.1-3.294l-10.744-77.7a10.025,10.025,0,0,0-11.294-8.526Z" transform="translate(-17.91 -104.608)"/><path class="b" d="M169.554,249.036A1.22,1.22,0,0,1,168.174,248l-8.636-62.519a8.343,8.343,0,0,0-7.518-7.176L35.293,168.931a1.219,1.219,0,0,1-.069-2.423l120.562-16.519A10.843,10.843,0,0,1,168,159.211L178.728,236.9a10.791,10.791,0,0,1-9.158,12.131ZM46.681,167.4l105.551,8.485a10.778,10.778,0,0,1,9.729,9.275l8.458,61.185a8.56,8.56,0,0,0,1.618-.678,8.345,8.345,0,0,0,4.26-8.451L165.563,159.54a8.39,8.39,0,0,0-9.451-7.129Z" transform="translate(-23.537 -102.807)"/><g class="f" transform="translate(13.922 61.614)"><path class="b" d="M44.75,200.465l23.876-3.285,1.655,4.743Z" transform="translate(-44.75 -197.18)"/></g><path class="g" d="M141.109,267.724a21.216,21.216,0,0,1-4.74.093l.031-.4a9.346,9.346,0,0,0,9.92-10.625l-10.656-77.166a9.4,9.4,0,0,0-8.43-8.05L13.844,161.509a7.421,7.421,0,0,1-5.583-2.768,5.658,5.658,0,0,1-.624-4.858,9.364,9.364,0,0,1,7.181-5.219L142.945,131.1A9.816,9.816,0,0,1,154,139.45l10.731,77.686c1.561,10.19-2.329,13.648-10.516,16.8l-.172-.367a9.355,9.355,0,0,0,4.78-9.477L148.1,146.4a9.277,9.277,0,0,0-.678-2.42v-.028h0a9.426,9.426,0,0,0-9.91-5.552L18.84,154.645l114.838,9.238a9.829,9.829,0,0,1,7.6,4.9,9.586,9.586,0,0,1,1.2,3.5l10.616,76.793c1.052,5.138.337,9.642-2.067,13.03A14.082,14.082,0,0,1,141.109,267.724Z" transform="translate(-5.073 -89.479)"/><path class="b" d="M142.54,130.865a9.6,9.6,0,0,1,10.828,8.177l10.731,77.67c1.561,10.236-2.554,13.568-10.385,16.575a9.592,9.592,0,0,0,4.79-6.532,9.4,9.4,0,0,0,.091-3.151l-10.728-77.689a9.36,9.36,0,0,0-.693-2.473h0a9.629,9.629,0,0,0-10.138-5.7L16.516,154.264l116.7,9.387a9.6,9.6,0,0,1,8.611,8.224l10.616,76.793c2.142,10.457-3.257,17.241-11.8,18.411a21.133,21.133,0,0,1-4.683.093,9.889,9.889,0,0,0,1.948-.065,9.59,9.59,0,0,0,8.187-10.79l-10.666-77.176a9.591,9.591,0,0,0-8.614-8.224L13.478,160.862h-.034c-4.39-.4-7.219-3.126-6.045-7.375a9.171,9.171,0,0,1,7.009-5.073L142.54,130.865m-.056-.4L14.359,148.009A9.574,9.574,0,0,0,7.037,153.3l-.016.034v.037a5.815,5.815,0,0,0,.649,5.026,7.6,7.6,0,0,0,5.732,2.858h.056L126.8,171.31a9.192,9.192,0,0,1,8.249,7.876l10.659,77.166a9.176,9.176,0,0,1-7.84,10.33,9.349,9.349,0,0,1-1.873.065l-.062.812a21.624,21.624,0,0,0,4.786-.1,14.3,14.3,0,0,0,10.044-5.7c2.438-3.421,3.163-7.984,2.1-13.188L142.247,171.8a9.813,9.813,0,0,0-1.218-3.577,10.028,10.028,0,0,0-7.756-4.983L20.288,154.152l116.8-16.012a9.22,9.22,0,0,1,9.679,5.406h0l.022.059a8.962,8.962,0,0,1,.662,2.367l10.731,77.686a9.15,9.15,0,0,1-4.683,9.272l.343.737c3.413-1.313,6.85-2.911,8.9-5.717,1.955-2.684,2.5-6.274,1.745-11.3l-10.712-77.683a10.025,10.025,0,0,0-11.29-8.526Z" transform="translate(-4.641 -89.027)"/><g class="d" transform="translate(149.107 134.413)"><path class="c" d="M482.221,433.3a9.44,9.44,0,0,0,.09-3.151l.348,2.516a9.437,9.437,0,0,1-.093,3.151,9.141,9.141,0,0,1-.622,1.96,33.4,33.4,0,0,1-4.5,2.059A9.589,9.589,0,0,0,482.221,433.3Z" transform="translate(-477.44 -430.15)"/><path class="e" d="M482.221,433.3a9.44,9.44,0,0,0,.09-3.151l.348,2.516a9.437,9.437,0,0,1-.093,3.151,9.141,9.141,0,0,1-.622,1.96,33.4,33.4,0,0,1-4.5,2.059A9.589,9.589,0,0,0,482.221,433.3Z" transform="translate(-477.44 -430.15)"/></g><path class="b" d="M139.018,266.479a22.579,22.579,0,0,1-5,.1,1.22,1.22,0,1,1,.187-2.432,8.365,8.365,0,0,0,8.845-9.471L132.38,177.508a8.335,8.335,0,0,0-7.493-7.176L11.553,160.273H11.51a8.409,8.409,0,0,1-6.344-3.2,6.59,6.59,0,0,1-.765-5.711,1.294,1.294,0,0,1,.078-.208,10.388,10.388,0,0,1,7.946-5.748l128.117-17.565a10.842,10.842,0,0,1,12.211,9.222l10.728,77.686c1.633,10.74-2.854,14.691-11.155,17.876a1.22,1.22,0,0,1-1.03-2.205,8.346,8.346,0,0,0,4.259-8.451L144.822,144.28a8.387,8.387,0,0,0-9.448-7.129L25.987,152.14l105.51,8.485a10.775,10.775,0,0,1,9.726,9.275l10.615,76.753c1.218,6.006.087,11.325-3.188,14.983A15.513,15.513,0,0,1,139.018,266.479ZM11.769,157.844,125.1,167.9a10.775,10.775,0,0,1,9.719,9.272l10.656,77.166a10.71,10.71,0,0,1-2.5,8.488,11.825,11.825,0,0,0,3.84-2.821c2.794-3.11,3.7-7.583,2.607-12.908a.578.578,0,0,1,0-.078L138.812,170.23a8.341,8.341,0,0,0-7.515-7.176L14.6,153.67a1.219,1.219,0,0,1-.069-2.423L135.05,134.728a10.839,10.839,0,0,1,12.208,9.222l10.725,77.686a10.781,10.781,0,0,1-.1,3.555,10.936,10.936,0,0,1-.749,2.345c3.547-2.488,4.921-5.91,3.931-12.442l-10.734-77.7a8.39,8.39,0,0,0-9.451-7.138L12.755,147.819a7.941,7.941,0,0,0-6.023,4.3,4.165,4.165,0,0,0,.446,3.561,6.074,6.074,0,0,0,4.552,2.177Z" transform="translate(-2.813 -87.226)"/><path class="b" d="M250.235,166.022l-.746.1L172.823,176.65a1.22,1.22,0,1,1-.33-2.417l76.687-10.551c6.258-.743,7.558-2.4,7.826-3.082.333-.846-.271-1.813-.837-2.488a1.223,1.223,0,0,1,1.866-1.58c1.807,2.121,1.677,3.863,1.244,4.952C258.375,163.788,255.336,165.3,250.235,166.022Z" transform="translate(-117.511 -107.298)"/><path class="c" d="M64.842,396.72l-.569,2.37,5.978.137,2.8-12.131c.2-.809.351-1.555.463-2.221a12.255,12.255,0,0,0,.184-1.748,4.718,4.718,0,0,0-2.2-4.3q-2.267-1.505-6.725-1.6a21.877,21.877,0,0,0-3.944.28,34.168,34.168,0,0,0-4.411,1.014l-1.067,4.753a29.859,29.859,0,0,1,4.588-1.505,15.617,15.617,0,0,1,3.81-.454,6.513,6.513,0,0,1,3.03.641,1.807,1.807,0,0,1,1.008,1.683,3.275,3.275,0,0,1-.019.333,1.091,1.091,0,0,1-.034.218l-.187.933-3.966-.09q-6.019-.14-9.263,1.95a7.057,7.057,0,0,0-3.322,6.184,5.818,5.818,0,0,0,1.714,4.547,6.994,6.994,0,0,0,4.88,1.782,10.532,10.532,0,0,0,4.044-.641,9.07,9.07,0,0,0,3.21-2.128Z" transform="translate(-35.128 -259.3)"/><path class="a" d="M71.929,420.916a2.6,2.6,0,0,1-.787-2,3.3,3.3,0,0,1,1.776-3.026,10.748,10.748,0,0,1,5.263-.871l2.32.053a9.861,9.861,0,0,1-2.355,5,5.328,5.328,0,0,1-4.109,1.68A3,3,0,0,1,71.929,420.916Z" transform="translate(-49.008 -285.337)"/><path class="c" d="M106.7,352.139l-6.4,27.4A32.177,32.177,0,0,1,98.4,385.6a9.207,9.207,0,0,1-2.205,2.955,9.618,9.618,0,0,1-3.913,2.087,20.118,20.118,0,0,1-5.751.532l-8.463-.2,1.372-5.726,6.37.146a5.735,5.735,0,0,0,4.2-1.272,9.286,9.286,0,0,0,2.208-4.775L97.3,357.666l-8.19-.187,1.319-5.729Z" transform="translate(-53.673 -241.728)"/><path class="c" d="M179.413,382.13a10.338,10.338,0,0,0-7.045-2.523,13.16,13.16,0,0,0-5.309.949,12.041,12.041,0,0,0-4.308,2.98,13.562,13.562,0,0,0-2.731,4.442,15.742,15.742,0,0,0-1.058,5.344q-.1,4.485,2.575,6.874t7.938,2.516A24.309,24.309,0,0,0,174,402.4a21.514,21.514,0,0,0,4.227-1.142l1.2-5.263a16.912,16.912,0,0,1-4.3,1.67,17.565,17.565,0,0,1-4.594.5,7.261,7.261,0,0,1-4.171-1.089,3.373,3.373,0,0,1-1.353-2.97c.019-.2.04-.4.065-.591s.062-.4.112-.622l16.084.37c.224-1.082.389-2.009.5-2.781a17.506,17.506,0,0,0,.184-2.04A7.983,7.983,0,0,0,179.413,382.13Z" transform="translate(-109.296 -260.937)"/><path class="a" d="M192.019,398.27a3.472,3.472,0,0,1-.131.538L182,398.581a7.475,7.475,0,0,1,2.432-3.421,5.751,5.751,0,0,1,3.652-1.076,4.293,4.293,0,0,1,2.942,1.033,3.334,3.334,0,0,1,1.02,2.659A4.12,4.12,0,0,1,192.019,398.27Z" transform="translate(-125.161 -270.95)"/><path class="c" d="M194.448,355.925l-2.068-2.009,5.677-6.106,3.387,3.294Z" transform="translate(-132.301 -239.129)"/><path class="c" d="M247.583,390.305l10,.065-.445,5.6-9.994-.065Zm-.719,9.207,9.994.068-.442,5.6-10-.068Zm34.286-9.972,9.994.068-.442,5.6-10-.065Zm-.722,9.21,10,.065-.445,5.6-9.994-.068Z" transform="translate(-169.372 -267.796)"/><path class="c" d="M262.689,379.43q.065-9.928,5.241-16.078a16.551,16.551,0,0,1,13.409-6.093q6.625.047,10.333,3.785t3.664,10.339q-.065,9.953-5.241,16.093a16.587,16.587,0,0,1-13.409,6.093q-6.628-.047-10.336-3.785T262.689,379.43Zm23.549-7.8a8.173,8.173,0,0,0-1.4-5.191,4.877,4.877,0,0,0-4.044-1.844q-3.792-.028-6.379,4.149a19.861,19.861,0,0,0-2.628,10.5,8,8,0,0,0,1.459,5.145,4.927,4.927,0,0,0,4.044,1.894q3.733.022,6.317-4.168A19.928,19.928,0,0,0,286.238,371.632Z" transform="translate(-180.594 -245.527)"/><path class="a" d="M143.054,63.4,96.488,69.751H96.41L85.627,68.79l-5.832-.529-7.185-.622-1.742-4.946L68.65,56.38l-10.1-28.712a1.138,1.138,0,0,1,.694-1.449L91.359,14.924l4.88-1.717,13.574-4.771,6.252-2.2h0l5.051-1.779a1.138,1.138,0,0,1,1.449.694L123.213,7l1.061,2.977,13.185,37.533,2.218,6.314Z" transform="translate(-40.289 -3.014)"/><path class="b" d="M95.988,69.49h-.1l-23.95-2.131-4-11.387L57.83,27.257a1.359,1.359,0,0,1,.824-1.729l56.88-19.991,5.008-1.767a1.356,1.356,0,0,1,1.726.824L142.847,63.1l-.268.037ZM72.256,66.93l23.723,2.115,46.277-6.308-20.4-58a.893.893,0,0,0-.467-.519.905.905,0,0,0-.7-.037L58.809,25.956a.933.933,0,0,0-.557,1.16Z" transform="translate(-39.786 -2.532)"/><path class="c" d="M122.942,6.215l-3.779,1.331h0l-19.826,6.97L62.323,27.527a1.138,1.138,0,0,0-.7,1.449L71.732,57.689,73.95,64l1.35,3.86-2.712-.24-1.72-4.93L68.65,56.38l-10.1-28.712a1.138,1.138,0,0,1,.694-1.449L96.255,13.207l19.826-6.97h0l5.036-1.779a1.138,1.138,0,0,1,1.449.694Z" transform="translate(-40.289 -3.014)"/><path class="h" d="M158.662,86.523,118.669,92,102.053,90.52l-2.261-6.426-2.218-6.314L90.79,58.516a5.988,5.988,0,0,0,3.658-7.633l23.281-8.18,17.054-6a5.988,5.988,0,0,0,7.633,3.658l10.647,30.255,2.221,6.314Z" transform="translate(-62.364 -25.272)"/><path class="b" d="M118.062,91.6h-.025l-16.768-1.5L96.743,77.231,89.9,57.76l.205-.075a5.776,5.776,0,0,0,3.527-7.353l-.075-.205.208-.075L134.3,35.8l.072.205a5.779,5.779,0,0,0,7.356,3.527l.205-.075.072.208,16.323,46.417Zm-16.485-1.907,16.463,1.468,39.7-5.44L141.667,40a6.221,6.221,0,0,1-7.63-3.655L94.112,50.4a6.221,6.221,0,0,1-3.658,7.63Z" transform="translate(-61.752 -24.652)"/><path class="b" d="M203.178,72.357l-46.566,6.348-.078-.006-10.784-.961,5.732-53.86,4.88-1.717,13.574-4.771,14.448,1.537,13.2,37.524,2.218,6.314Z" transform="translate(-100.148 -11.968)"/><path class="b" d="M140.32,61.8a1.316,1.316,0,0,1-1.406-.868L118.488,2.856,113.6,4.573h-.047L56.942,24.48l14.47,41.151a1.318,1.318,0,1,1-2.488.871L54.41,25.2a2.451,2.451,0,0,1,1.493-3.11l56.827-20h.047l5-1.776a2.448,2.448,0,0,1,3.11,1.493L141.38,60.066a1.316,1.316,0,0,1-.8,1.677,1.415,1.415,0,0,1-.258.062Z" transform="translate(-37.389 -0.112)"/><path class="b" d="M156.361,85.2a1.1,1.1,0,0,1-1.173-.725l-15.9-45.21a7.1,7.1,0,0,1-7.524-3.6L93.335,49.17a7.1,7.1,0,0,1-3.608,7.524l11.4,32.411a1.095,1.095,0,1,1-2.065.728L87.328,56.467A1.086,1.086,0,0,1,88,55.074a4.9,4.9,0,0,0,2.989-6.239,1.1,1.1,0,0,1,.669-1.387l40.336-14.184a1.1,1.1,0,0,1,1.4.669,4.9,4.9,0,0,0,6.221,2.989,1.1,1.1,0,0,1,1.4.669l16.233,46.165a1.1,1.1,0,0,1-.669,1.4A1.169,1.169,0,0,1,156.361,85.2Z" transform="translate(-59.938 -22.862)"/><path class="a" d="M234.746,12.427l-3.11,29.188-2.084,19.565L160.36,70.112l6.905-64.874a1.138,1.138,0,0,1,1.244-1.011l65.229,6.946a1.138,1.138,0,0,1,1.008,1.253Z" transform="translate(-110.13 -2.896)"/><path class="c" d="M234.746,12.427l-.159,1.369L170.786,7A1.138,1.138,0,0,0,169.542,8L162.96,69.783l-2.6.336,6.905-64.88a1.138,1.138,0,0,1,1.244-1.011l65.229,6.946a1.138,1.138,0,0,1,1.008,1.253Z" transform="translate(-110.13 -2.896)"/><path class="b" d="M226.812,59.546l-69.194,8.933a1.313,1.313,0,0,1-1.474-1.44l6.905-64.89a2.454,2.454,0,0,1,2.687-2.177l65.225,6.946a2.454,2.454,0,0,1,2.177,2.694h0l-5.194,48.771A1.313,1.313,0,0,1,226.812,59.546Zm-67.882,6.115,66.526-8.588,5.054-47.549L165.643,2.616ZM231.836,9.49Z" transform="translate(-107.219 0.041)"/><path class="h" d="M241.833,40.24,237.681,79.2l-55.8,7.2,5.533-51.963A5.984,5.984,0,0,0,194,29.13l42.516,4.526A5.988,5.988,0,0,0,241.833,40.24Z" transform="translate(-124.966 -20.057)"/><path class="b" d="M235.361,77.837l-55.8,7.2a1.095,1.095,0,0,1-1.244-1.2l5.549-51.963a1.1,1.1,0,0,1,1.191-.974,4.9,4.9,0,0,0,5.381-4.355,1.09,1.09,0,0,1,1.2-.974l42.529,4.538a1.1,1.1,0,0,1,.964,1.2,4.9,4.9,0,0,0,4.355,5.381,1.1,1.1,0,0,1,.974,1.2L236.31,76.867A1.1,1.1,0,0,1,235.361,77.837Zm-54.706,4.855,53.571-6.911,3.953-37.1a7.1,7.1,0,0,1-5.244-6.491l-40.51-4.3a7.089,7.089,0,0,1-6.491,5.241Z" transform="translate(-122.506 -17.604)"/><path class="a" d="M241.778,130.937A15.456,15.456,0,0,0,227,153.238l2.146-.277a9.642,9.642,0,0,1,3.213-2.647l6.659-3.633a.311.311,0,0,1,.439.128,6.591,6.591,0,0,0,.311.672l1.244,2.286a1.191,1.191,0,0,0,1.642.376l1-.544a4.129,4.129,0,0,0,2.2-4.547c0-.047-.09-.028-.087.022a4.313,4.313,0,0,1-2.37,4.044l-.949.519a.684.684,0,0,1-.933-.215l-1.225-2.243c-1.173-2.152-.684-4.622,2.062-6.88,2.358-1.938,2.177-3.916,1.073-5.188-1.708-1.972-4.638-2.006-7.067-.529a6.4,6.4,0,0,0-3.282,6.759,1.384,1.384,0,0,0,.491.793c.37.311.159.821-.361.905a.881.881,0,0,0-.311.109c-.519.311-.933,0-.815-.485a1.509,1.509,0,0,0,0-.806,6.672,6.672,0,0,1,.174-3.981,8.981,8.981,0,0,1,9.932-5.521,6.355,6.355,0,0,1,4.93,7.972.058.058,0,0,0,.109.031,3.661,3.661,0,0,1,1.026-1.129.109.109,0,0,1,.168.131c-.451.784-.4,1.493-.208,2.88a5.53,5.53,0,0,1-.958,3.963,3.11,3.11,0,0,0-.271,3.247l.311.563c.106.19.193.373.274.554l8.4-1.082a15,15,0,0,0,.292-2.193A15.462,15.462,0,0,0,241.778,130.937Z" transform="translate(-154.952 -89.978)"/><path class="a" d="M281.687,165.41c-.084.236,0,.46.177.5a.473.473,0,0,0,.485-.351c.087-.236,0-.46-.177-.5A.473.473,0,0,0,281.687,165.41Z" transform="translate(-193.716 -113.484)"/><text class="i" transform="matrix(-0.365, -0.931, 0.931, -0.365, 41.038, 39.23)"><tspan x="0" y="0">$</tspan></text><path class="c" d="M213.23,56.874l.339-2.1,1.328.311-.342,2.1Zm2.177.495.342-2.1,1.328.311-.342,2.1Zm-1.275-7.589.339-2.1,1.328.311-.342,2.1Zm2.177.5.342-2.1,1.328.311-.33,2.093Z" transform="translate(-146.648 -32.837)"/><text class="j" transform="translate(69.354 23.885) rotate(-80.256)"><tspan x="0" y="0">N</tspan></text><text class="k" transform="matrix(0.149, -0.989, 0.989, 0.149, 109.806, 29.288)"><tspan x="0" y="0">£</tspan></text></g></g></g></svg>